<?xml version="1.0" encoding="utf-8"?>
<!-- Generator: Adobe Illustrator 22.1.0, SVG Export Plug-In . SVG Version: 6.00 Build 0)  -->
<svg version="1.1" xmlns="http://www.w3.org/2000/svg" xmlns:xlink="http://www.w3.org/1999/xlink" x="0px" y="0px"
	 viewBox="0 0 100 125" style="enable-background:new 0 0 100 125;" xml:space="preserve">
<style type="text/css">
	.st0{fill:#FFFFFF;}
</style>
<g id="레이어_2">
</g>
<g id="레이어_1">
	<g>
		<path class="st0" d="M76.4,77.4c0-8-1.5-13.1-4.4-15.4c-2.9-2.3-9.9-3.7-20.8-4.1c-9.3-0.4-14.9-1.3-16.7-2.5
			c-1.9-1.2-2.8-4.7-2.8-10.3c0-5,1.2-8.3,3.6-9.7c2.4-1.4,7.7-2.2,16-2.2c7,0,11.4,0.8,13.3,2.3c1.9,1.5,2.8,5.1,2.8,10.7h7.8
			c0-8.2-1.6-13.5-4.8-16c-2.6-2-7.6-3.2-15-3.6V11.8h-11v14.9c-7.2,0.4-12.3,1.7-15.1,3.8c-3.4,2.7-5.2,8-5.2,15.9
			c0,11.5,5.9,17.6,17.8,18.4l7.8,0.4l8.2,0.4c4.5,0.3,7.5,1.1,8.9,2.5c1.4,1.4,2.1,4.3,2.1,8.5c0,6.6-1,10.6-3.1,12.2
			c-2.1,1.5-7.6,2.3-16.7,2.3c-7.9,0-12.8-0.8-14.7-2.3c-1.9-1.5-2.9-5.4-2.9-11.6v-1.7h-7.8l0.1,3.1c0,7.7,1.7,12.8,5,15.4
			c2.8,2.1,8.1,3.4,15.7,3.7v15.4h11V97.7c7.9-0.4,13.2-1.6,15.9-3.6C74.7,91.6,76.4,86,76.4,77.4z"/>
	</g>
</g>
</svg>
