<?xml version="1.0" encoding="utf-8"?>
<!-- Generator: Adobe Illustrator 22.1.0, SVG Export Plug-In . SVG Version: 6.00 Build 0)  -->
<svg version="1.1" id="레이어_1" xmlns="http://www.w3.org/2000/svg" xmlns:xlink="http://www.w3.org/1999/xlink" x="0px"
	 y="0px" viewBox="0 0 100 125" style="enable-background:new 0 0 100 125;" xml:space="preserve">
<style type="text/css">
	.st0{fill:#FFFFFF;}
</style>
<g>
	<path class="st0" d="M39.4,58h0.3c3.3,0,6,2.7,6,6c0,3.3-2.7,6-6,6s-6-2.7-6-6c0-0.6-0.5-1-1-1c-0.6,0-1,0.5-1,1
		c0,4,2.9,7.2,6.7,7.9v2.1c0,0.6,0.5,1,1,1c0.6,0,1-0.5,1-1v-2.1c4.1-0.4,7.3-3.8,7.3-7.9c0-4.4-3.6-8-8-8h-0.3c-3.3,0-6-2.7-6-6
		c0-3.3,2.7-6,6-6s6,2.7,6,6c0,0.6,0.5,1,1,1c0.6,0,1-0.5,1-1c0-4.1-3.1-7.4-7-7.9V40c0-0.6-0.5-1-1-1c-0.6,0-1,0.5-1,1v2.1
		c-3.9,0.5-7,3.8-7,7.9C31.4,54.4,35,58,39.4,58z"/>
	<path class="st0" d="M71.9,101.7V27.6c0-0.6-0.5-1-1-1H62v-3.3c0-0.6-0.5-1-1-1c-0.6,0-1,0.5-1,1v3.3H47.8v-3.3c0-0.6-0.5-1-1-1
		c-0.6,0-1,0.5-1,1v3.3H33.5v-3.3c0-0.6-0.5-1-1-1c-0.6,0-1,0.5-1,1v3.3H19.3v-3.3c0-0.6-0.5-1-1-1s-1,0.5-1,1v3.3H8.4
		c-0.6,0-1,0.5-1,1v74.2c0,0.6,0.5,1,1,1h62.4C71.4,102.7,71.9,102.3,71.9,101.7z M69.8,100.7H9.4V28.6h7.8v3.3c0,0.6,0.5,1,1,1
		s1-0.5,1-1v-3.3h12.2v3.3c0,0.6,0.5,1,1,1c0.6,0,1-0.5,1-1v-3.3h12.2v3.3c0,0.6,0.5,1,1,1c0.6,0,1-0.5,1-1v-3.3H60v3.3
		c0,0.6,0.5,1,1,1c0.6,0,1-0.5,1-1v-3.3h7.8V100.7z"/>
	<path class="st0" d="M92.9,58.3l2.4-2.3c1.3-1.3,1.3-3.4,0-4.7l-1.6-1.6c-1.3-1.3-3.4-1.3-4.7,0L60.6,78c-0.1,0.1-0.2,0.3-0.3,0.4
		l-1.6,4.7c-0.1,0.4,0,0.8,0.3,1.1l-1.6,1.6c-0.4,0.4-0.4,1.1,0,1.6c0.4,0.4,1.1,0.4,1.6,0l1.6-1.6l0,0c0.2,0.2,0.5,0.3,0.8,0.3
		c0.1,0,0.2,0,0.4,0l4.7-1.6c0.2-0.1,0.3-0.2,0.4-0.3l24.4-24.5l1.6,1.6l-5.6,5.5c-0.4,0.4-0.4,1.1,0,1.6c0.4,0.4,1.1,0.4,1.6,0
		l6.3-6.3c0.4-0.4,0.4-1.1,0-1.6L92.9,58.3z M90.5,51.2c0.4-0.4,1.1-0.4,1.6,0l1.6,1.6c0.4,0.4,0.4,1.1,0,1.6l-2.4,2.4l-3.2-3.2
		L90.5,51.2z M65.5,82.5l-3.9,1.3l-0.6-0.6l1.3-3.9l24.3-24.2l3.2,3.2L65.5,82.5z"/>
</g>
</svg>
