<?xml version="1.0" encoding="utf-8"?>
<!-- Generator: Adobe Illustrator 22.1.0, SVG Export Plug-In . SVG Version: 6.00 Build 0)  -->
<svg version="1.1" id="레이어_1" xmlns="http://www.w3.org/2000/svg" xmlns:xlink="http://www.w3.org/1999/xlink" x="0px"
	 y="0px" viewBox="0 0 100 125" style="enable-background:new 0 0 100 125;" xml:space="preserve">
<style type="text/css">
	.st0{fill:#FFFFFF;}
</style>
<g>
	<path class="st0" d="M71.4,50.1h-3.8v-3.5c0-9.3-8.2-17.1-17.8-17.1c-9.5,0-17.2,7.7-17.2,17.2v3.4h-4c-2.3,0-4.2,1.9-4.2,4.2v38
		c0,2.3,1.9,4.2,4.2,4.2h42.8c2.3,0,4.2-1.9,4.2-4.2v-38C75.6,52,73.7,50.1,71.4,50.1z M35.6,46.7c0-7.8,6.4-14.2,14.2-14.2
		c8.1,0,14.9,6.5,14.9,14.1v3.5H35.6V46.7z M72.6,92.3c0,0.7-0.6,1.2-1.2,1.2H28.6c-0.7,0-1.2-0.6-1.2-1.2v-38
		c0-0.7,0.6-1.2,1.2-1.2h42.8c0.7,0,1.2,0.6,1.2,1.2V92.3z"/>
</g>
<g>
	<path class="st0" d="M52.6,74.2l1.7,6.3H46l1.7-6.3c-1-0.8-1.7-2-1.7-3.3c0-2.3,1.9-4.1,4.1-4.1c2.3,0,4.1,1.9,4.1,4.1
		C54.3,72.2,53.6,73.4,52.6,74.2z"/>
</g>
</svg>
