<?xml version="1.0" encoding="utf-8"?>
<!-- Generator: Adobe Illustrator 22.1.0, SVG Export Plug-In . SVG Version: 6.00 Build 0)  -->
<svg version="1.1" xmlns="http://www.w3.org/2000/svg" xmlns:xlink="http://www.w3.org/1999/xlink" x="0px" y="0px"
	 viewBox="0 0 100 125" style="enable-background:new 0 0 100 125;" xml:space="preserve">
<style type="text/css">
	.st0{fill:none;stroke:#FFFFFF;stroke-width:2;stroke-miterlimit:10;stroke-dasharray:4.0262,4.0262;}
	.st1{fill:none;stroke:#FFFFFF;stroke-width:2;stroke-miterlimit:10;stroke-dasharray:3.9662,3.9662;}
	.st2{fill:none;stroke:#FFFFFF;stroke-width:2;stroke-miterlimit:10;}
</style>
<g id="레이어_2">
</g>
<g id="레이어_1">
	<g>
		<g>
			<g>
				<circle class="st0" cx="50" cy="61" r="32"/>
			</g>
			<g>
				<circle class="st1" cx="50" cy="61" r="48"/>
			</g>
		</g>
	</g>
	<g>
		<path class="st2" d="M59.5,66.3c0-2.9-0.5-4.7-1.6-5.6c-1.1-0.8-3.6-1.3-7.5-1.5c-3.4-0.2-5.4-0.5-6.1-0.9c-0.7-0.4-1-1.7-1-3.7
			c0-1.8,0.4-3,1.3-3.5c0.9-0.5,2.8-0.8,5.8-0.8c2.5,0,4.1,0.3,4.8,0.8c0.7,0.5,1,1.8,1,3.9H59c0-2.9-0.6-4.9-1.7-5.8
			c-0.9-0.7-2.7-1.2-5.4-1.3v-5.4h-4V48c-2.6,0.2-4.4,0.6-5.4,1.4c-1.2,1-1.9,2.9-1.9,5.8c0,4.1,2.1,6.4,6.4,6.7l2.8,0.1l3,0.1
			c1.6,0.1,2.7,0.4,3.2,0.9c0.5,0.5,0.8,1.5,0.8,3.1c0,2.4-0.4,3.8-1.1,4.4c-0.8,0.5-2.8,0.8-6,0.8c-2.8,0-4.6-0.3-5.3-0.8
			c-0.7-0.5-1-2-1-4.2v-0.6h-2.8l0,1.1c0,2.8,0.6,4.6,1.8,5.6c1,0.8,2.9,1.2,5.7,1.3v5.6h4v-5.6c2.9-0.1,4.8-0.6,5.8-1.3
			C58.9,71.4,59.5,69.4,59.5,66.3z"/>
	</g>
</g>
</svg>
